<svg xmlns="http://www.w3.org/2000/svg" viewBox="0 0 59.1 59.1"><path d="M29.5 1.7C14 1.7 1.4 14.3 1.4 29.8c0 12.4 8 22.9 19.2 26.7 1.4.3 1.9-.6 1.9-1.4v-4.8C14.7 52 13 46.5 13 46.5c-1.3-3.2-3.1-4.1-3.1-4.1-2.6-1.7.2-1.7.2-1.7 2.8.2 4.3 2.9 4.3 2.9 2.5 4.3 6.6 3.1 8.2 2.3.3-1.8 1-3.1 1.8-3.8-6.2-.7-12.8-3.1-12.8-13.9 0-3.1 1.1-5.6 2.9-7.5-.3-.7-1.3-3.6.3-7.4 0 0 2.4-.8 7.7 2.9 2.2-.6 4.6-.9 7-.9 2.4 0 4.8.3 7 .9 5.4-3.6 7.7-2.9 7.7-2.9 1.5 3.9.6 6.7.3 7.4 1.8 2 2.9 4.5 2.9 7.5 0 10.8-6.6 13.2-12.8 13.9 1 .9 1.9 2.6 1.9 5.2V55c0 .8.5 1.6 1.9 1.4 11.2-3.7 19.2-14.2 19.2-26.6C57.6 14.3 45 1.7 29.5 1.7z"/></svg>
