<?xml version="1.0" encoding="utf-8"?>
<svg version="1.1"
  xmlns="http://www.w3.org/2000/svg"
  xmlns:xlink="http://www.w3.org/1999/xlink"
	viewBox="0 0 60 30"
  xml:space="preserve"
>
	<path class="lines" d="M56.3,4.2h-36c-0.8,0-1.5,0.7-1.5,1.5v18c0,0.8,0.7,1.5,1.5,1.5h36c0.8,0,1.5-0.7,1.5-1.5v-18
		C57.8,4.8,57.1,4.2,56.3,4.2z M21.8,7.9l7.5,5.2l-7.5,7.6V7.9z M38.3,17L24.2,7.2h28.2L38.3,17z M30.9,14.3l6.8,4.7
		c0.2,0.1,0.4,0.2,0.6,0.2s0.4-0.1,0.6-0.2l6.2-4.3l8.1,7.5h-30L30.9,14.3z M46.8,13.5l8-5.6v13L46.8,13.5z"/>
	<polygon class="star star--1" points="4.5,14.1 5.2,15.4 6.5,16.1 5.2,16.8 4.5,18.1 3.8,16.8 2.5,16.1 3.8,15.4 	"/>
	<polygon class="star star--2" points="13,17.4 13.6,18.6 14.9,19.2 13.6,19.8 13,21 12.3,19.8 11,19.2 12.3,18.6 	"/>
	<polygon class="star star--3" points="10,8.4 10.7,9.7 12,10.4 10.7,11.1 10,12.4 9.3,11.1 8,10.4 9.3,9.7 	"/>
	<path class="back" d="M56,24H21c-0.5,0-1-0.5-1-1V6c0-0.6,0.5-1,1-1h35c0.5,0,1,0.4,1,1v17C57,23.5,56.5,24,56,24z"/>
</svg>
